<svg width="100%" height="100%" viewBox="0 0 60 71" fill="none" xmlns="http://www.w3.org/2000/svg">
<path d="M34 4C34 1.79086 32.2091 -9.65645e-08 30 0C27.7909 9.65645e-08 26 1.79086 26 4L34 4ZM27.1716 69.8284C28.7337 71.3905 31.2663 71.3905 32.8284 69.8284L58.2843 44.3726C59.8464 42.8105 59.8464 40.2778 58.2843 38.7157C56.7222 37.1536 54.1895 37.1536 52.6274 38.7157L30 61.3431L7.37258 38.7157C5.81049 37.1536 3.27783 37.1536 1.71573 38.7157C0.153633 40.2778 0.153633 42.8105 1.71573 44.3726L27.1716 69.8284ZM26 4L26 67L34 67L34 4L26 4Z" fill="#FAF9F6"/>
</svg>
