<svg width="100%" height="100%" viewBox="0 0 73 73" fill="none" xmlns="http://www.w3.org/2000/svg">
<path d="M47.5108 21.9539C46.5345 22.9302 46.5345 24.5131 47.5108 25.4894C48.4871 26.4658 50.07 26.4658 51.0463 25.4894L47.5108 21.9539ZM72.5002 3.00005C72.5002 1.61934 71.3809 0.500051 70.0002 0.50005L47.5002 0.500048C46.1195 0.500048 45.0002 1.61934 45.0002 3.00005C45.0002 4.38076 46.1195 5.50005 47.5002 5.50005L67.5002 5.50005L67.5002 25.5C67.5002 26.8808 68.6195 28 70.0002 28C71.3809 28 72.5002 26.8808 72.5002 25.5L72.5002 3.00005ZM51.0463 25.4894L71.768 4.76782L68.2324 1.23228L47.5108 21.9539L51.0463 25.4894Z" fill="#FAF9F6"/>
<path d="M25.4894 51.0463C26.4658 50.07 26.4658 48.4871 25.4894 47.5108C24.5131 46.5345 22.9302 46.5345 21.9539 47.5108L25.4894 51.0463ZM0.500048 70.0002C0.500049 71.3809 1.61934 72.5002 3.00005 72.5002H25.5C26.8808 72.5002 28 71.3809 28 70.0002C28 68.6195 26.8808 67.5002 25.5 67.5002H5.50005V47.5002C5.50005 46.1195 4.38076 45.0002 3.00005 45.0002C1.61934 45.0002 0.500048 46.1195 0.500048 47.5002V70.0002ZM21.9539 47.5108L1.23228 68.2324L4.76781 71.768L25.4894 51.0463L21.9539 47.5108Z" fill="#FAF9F6"/>
<path d="M51.0463 46.8202C50.07 45.8439 48.4871 45.8439 47.5108 46.8202C46.5345 47.7966 46.5345 49.3795 47.5108 50.3558L51.0463 46.8202ZM70.0002 71.8096C71.3809 71.8096 72.5002 70.6904 72.5002 69.3096L72.5002 46.8096C72.5002 45.4289 71.3809 44.3096 70.0002 44.3096C68.6195 44.3096 67.5002 45.4289 67.5002 46.8096L67.5002 66.8096L47.5002 66.8096C46.1195 66.8096 45.0002 67.9289 45.0002 69.3096C45.0002 70.6904 46.1195 71.8096 47.5002 71.8096L70.0002 71.8096ZM47.5108 50.3558L68.2324 71.0774L71.768 67.5419L51.0463 46.8202L47.5108 50.3558Z" fill="#FAF9F6"/>
<path d="M22.6448 25.4894C23.6211 26.4658 25.2041 26.4658 26.1804 25.4894C27.1567 24.5131 27.1567 22.9302 26.1804 21.9539L22.6448 25.4894ZM3.69097 0.500048C2.31026 0.500049 1.19097 1.61934 1.19097 3.00005V25.5C1.19097 26.8808 2.31025 28 3.69097 28C5.07168 28 6.19097 26.8808 6.19097 25.5V5.50005H26.191C27.5717 5.50005 28.691 4.38076 28.691 3.00005C28.691 1.61934 27.5717 0.500048 26.191 0.500048H3.69097ZM26.1804 21.9539L5.45873 1.23228L1.9232 4.76781L22.6448 25.4894L26.1804 21.9539Z" fill="#FAF9F6"/>
</svg>
